<?xml version="1.0" encoding="iso-8859-1"?>
<!-- Uploaded to: SVG Repo, www.svgrepo.com, Generator: SVG Repo Mixer Tools -->
<!DOCTYPE svg PUBLIC "-//W3C//DTD SVG 1.1//EN" "http://www.w3.org/Graphics/SVG/1.1/DTD/svg11.dtd">
<svg version="1.1" id="Capa_1" xmlns="http://www.w3.org/2000/svg" xmlns:xlink="http://www.w3.org/1999/xlink" 
	 width="800px" height="800px" viewBox="0 0 327.894 327.894"
	 xml:space="preserve">
<g>
	<path style="fill:#030303;" d="M266.413,0c-27.469,0-50.455,19.499-55.876,45.378h-52.451v61.046
		c-28.739,2.939-51.233,27.292-51.233,56.791s22.495,53.853,51.233,56.791v49.336h-39.595
		c-0.783-30.798-26.031-55.625-57.011-55.625c-31.478,0-57.089,25.61-57.089,57.088c0,31.479,25.611,57.089,57.089,57.089
		c27.975,0,51.268-20.241,56.117-46.842h52.199v-61.046c28.739-2.938,51.233-27.292,51.233-56.791s-22.494-53.852-51.233-56.791
		V57.089h39.523c0,31.478,25.61,57.088,57.094,57.088c31.478,0,57.089-25.611,57.089-57.088S297.891,0,266.413,0z M61.48,316.184
		c-25.019,0-45.378-20.356-45.378-45.379c0-25.021,20.359-45.378,45.378-45.378s45.378,20.356,45.378,45.378
		C106.858,295.827,86.499,316.184,61.48,316.184z M209.319,163.215c0,25.022-20.362,45.379-45.378,45.379
		c-25.02,0-45.378-20.356-45.378-45.379c0-25.019,20.359-45.378,45.378-45.378C188.957,117.837,209.319,138.196,209.319,163.215z
		 M266.413,102.467c-25.021,0-45.384-20.359-45.384-45.378c0-25.02,20.362-45.378,45.384-45.378
		c25.022,0,45.379,20.359,45.379,45.378C311.792,82.108,291.436,102.467,266.413,102.467z"/>
</g>
</svg>